<svg width="16" height="16" viewBox="0 0 16 16" fill="none" xmlns="http://www.w3.org/2000/svg">
<g clip-path="url(#clip0_30475_29113)">
<path d="M2.6665 10.9935C2.6665 11.5802 2.9265 12.1068 3.33317 12.4735V13.3268C3.33317 13.8802 3.77984 14.3268 4.33317 14.3268C4.8865 14.3268 5.33317 13.8802 5.33317 13.3268V12.9935H10.6665V13.3268C10.6665 13.8735 11.1132 14.3268 11.6665 14.3268C12.2132 14.3268 12.6665 13.8802 12.6665 13.3268V12.4735C13.0732 12.1068 13.3332 11.5802 13.3332 10.9935V4.32682C13.3332 1.99349 10.9465 1.66016 7.99984 1.66016C5.05317 1.66016 2.6665 1.99349 2.6665 4.32682V10.9935ZM4.99984 11.6602C4.4465 11.6602 3.99984 11.2135 3.99984 10.6602C3.99984 10.1068 4.4465 9.66016 4.99984 9.66016C5.55317 9.66016 5.99984 10.1068 5.99984 10.6602C5.99984 11.2135 5.55317 11.6602 4.99984 11.6602ZM10.9998 11.6602C10.4465 11.6602 9.99984 11.2135 9.99984 10.6602C9.99984 10.1068 10.4465 9.66016 10.9998 9.66016C11.5532 9.66016 11.9998 10.1068 11.9998 10.6602C11.9998 11.2135 11.5532 11.6602 10.9998 11.6602ZM11.9998 7.66016H3.99984V4.32682H11.9998V7.66016Z" fill="#2474E5"/>
</g>
<defs>
<clipPath id="clip0_30475_29113">
<rect width="16" height="16" fill="white"/>
</clipPath>
</defs>
</svg>
