<svg width="48" height="48" viewBox="0 0 48 48" fill="none" xmlns="http://www.w3.org/2000/svg">
<g clip-path="url(#clip0_14502_43096)">
<path d="M24.0013 7.3335C16.6346 7.3335 10.668 8.16683 10.668 14.0002V30.6668C10.668 32.1335 11.318 33.4502 12.3346 34.3668V37.3335C12.3346 38.2502 13.0846 39.0002 14.0013 39.0002H15.668C16.5846 39.0002 17.3346 38.2502 17.3346 37.3335V35.6668H30.668V37.3335C30.668 38.2502 31.418 39.0002 32.3346 39.0002H34.0013C34.918 39.0002 35.668 38.2502 35.668 37.3335V34.3668C36.6846 33.4502 37.3346 32.1335 37.3346 30.6668V14.0002C37.3346 8.16683 31.368 7.3335 24.0013 7.3335ZM33.4346 12.3168H14.568C15.4846 11.4335 17.8513 10.6668 24.0013 10.6668C30.1513 10.6668 32.518 11.4335 33.4346 12.3168ZM34.0013 15.6502V20.6668H14.0013V15.6502H34.0013ZM33.4346 31.8835L32.9513 32.3335H15.0513L14.568 31.8835C14.3513 31.7002 14.0013 31.2835 14.0013 30.6668V24.0002H34.0013V30.6668C34.0013 31.2835 33.6513 31.7002 33.4346 31.8835Z" fill="#2474E5"/>
<path d="M18.168 30.6665C19.5487 30.6665 20.668 29.5472 20.668 28.1665C20.668 26.7858 19.5487 25.6665 18.168 25.6665C16.7873 25.6665 15.668 26.7858 15.668 28.1665C15.668 29.5472 16.7873 30.6665 18.168 30.6665Z" fill="#2474E5"/>
<path d="M29.832 30.6665C31.2127 30.6665 32.332 29.5472 32.332 28.1665C32.332 26.7858 31.2127 25.6665 29.832 25.6665C28.4513 25.6665 27.332 26.7858 27.332 28.1665C27.332 29.5472 28.4513 30.6665 29.832 30.6665Z" fill="#2474E5"/>
</g>
<defs>
<clipPath id="clip0_14502_43096">
<rect width="40" height="40" fill="white" transform="translate(4 4)"/>
</clipPath>
</defs>
</svg>
