<svg width="48" height="48" viewBox="0 0 48 48" fill="none" xmlns="http://www.w3.org/2000/svg">
<g clip-path="url(#clip0_14502_43126)">
<path d="M39.682 23.3002L24.682 8.30016C24.082 7.70016 23.2487 7.3335 22.332 7.3335H10.6654C8.83203 7.3335 7.33203 8.8335 7.33203 10.6668V22.3335C7.33203 23.2502 7.6987 24.0835 8.31536 24.7002L23.3154 39.7002C23.9154 40.3002 24.7487 40.6668 25.6654 40.6668C26.582 40.6668 27.4154 40.3002 28.0154 39.6835L39.682 28.0168C40.2987 27.4168 40.6654 26.5835 40.6654 25.6668C40.6654 24.7502 40.282 23.9002 39.682 23.3002ZM25.6654 37.3502L10.6654 22.3335V10.6668H22.332V10.6502L37.332 25.6502L25.6654 37.3502Z" fill="#EB5757"/>
<path d="M14.832 17.3335C16.2127 17.3335 17.332 16.2142 17.332 14.8335C17.332 13.4528 16.2127 12.3335 14.832 12.3335C13.4513 12.3335 12.332 13.4528 12.332 14.8335C12.332 16.2142 13.4513 17.3335 14.832 17.3335Z" fill="#EB5757"/>
<path d="M18.832 24.9167C18.832 25.8667 19.2154 26.7 19.832 27.3333L25.6654 33.1667L31.4987 27.3333C32.1154 26.7167 32.4987 25.85 32.4987 24.9167C32.4987 23.0333 30.9654 21.5 29.082 21.5C28.132 21.5 27.282 21.8833 26.6654 22.5L25.6654 23.5L24.6654 22.5167C24.0487 21.8833 23.182 21.5 22.2487 21.5C20.3654 21.5 18.832 23.0333 18.832 24.9167Z" fill="#EB5757"/>
</g>
<defs>
<clipPath id="clip0_14502_43126">
<rect width="40" height="40" fill="white" transform="translate(4 4)"/>
</clipPath>
</defs>
</svg>
