<svg width="48" height="48" viewBox="0 0 48 48" fill="none" xmlns="http://www.w3.org/2000/svg">
<g clip-path="url(#clip0_14502_43106)">
<path d="M40.6654 20.6665V13.9998C40.6654 12.1665 39.1654 10.6665 37.332 10.6665H10.6654C8.83203 10.6665 7.3487 12.1665 7.3487 13.9998V20.6665C9.18203 20.6665 10.6654 22.1665 10.6654 23.9998C10.6654 25.8332 9.18203 27.3332 7.33203 27.3332V33.9998C7.33203 35.8332 8.83203 37.3332 10.6654 37.3332H37.332C39.1654 37.3332 40.6654 35.8332 40.6654 33.9998V27.3332C38.832 27.3332 37.332 25.8332 37.332 23.9998C37.332 22.1665 38.832 20.6665 40.6654 20.6665ZM37.332 18.2332C35.3487 19.3832 33.9987 21.5498 33.9987 23.9998C33.9987 26.4498 35.3487 28.6165 37.332 29.7665V33.9998H10.6654V29.7665C12.6487 28.6165 13.9987 26.4498 13.9987 23.9998C13.9987 21.5332 12.6654 19.3832 10.682 18.2332L10.6654 13.9998H37.332V18.2332ZM19.1154 30.6665L23.9987 27.5332L28.882 30.6665L27.3987 25.0665L31.882 21.3998L26.0987 21.0498L23.9987 15.6665L21.882 21.0332L16.0987 21.3832L20.582 25.0498L19.1154 30.6665Z" fill="#FFAF1F"/>
</g>
<defs>
<clipPath id="clip0_14502_43106">
<rect width="40" height="40" fill="white" transform="translate(4 4)"/>
</clipPath>
</defs>
</svg>
