<svg width="48" height="48" viewBox="0 0 48 48" fill="none" xmlns="http://www.w3.org/2000/svg">
<g clip-path="url(#clip0_14502_43114)">
<path d="M41.5 23.9843L37.6182 19.5557L38.1591 13.6986L32.4159 12.397L29.4091 7.3335L24 9.65096L18.5909 7.3335L15.5841 12.397L9.84091 13.6827L10.3818 19.5557L6.5 23.9843L10.3818 28.4129L9.84091 34.2859L15.5841 35.5875L18.5909 40.6668L24 38.3335L29.4091 40.651L32.4159 35.5875L38.1591 34.2859L37.6182 28.4287L41.5 23.9843ZM35.2159 26.3335L34.325 27.3652L34.4523 28.7145L34.7386 31.8097L31.7159 32.4922L30.3795 32.7938L29.6795 33.9684L28.1045 36.6351L25.2727 35.4129L24 34.8732L22.7432 35.4129L19.9114 36.6351L18.3364 33.9843L17.6364 32.8097L16.3 32.5081L13.2773 31.8256L13.5636 28.7145L13.6909 27.3652L12.8 26.3335L10.7477 24.0002L12.8 21.651L13.6909 20.6192L13.5477 19.2541L13.2614 16.1748L16.2841 15.4922L17.6205 15.1906L18.3205 14.016L19.8955 11.3494L22.7273 12.5716L24 13.1113L25.2568 12.5716L28.0886 11.3494L29.6636 14.016L30.3636 15.1906L31.7 15.4922L34.7227 16.1748L34.4364 19.27L34.3091 20.6192L35.2 21.651L37.2523 23.9843L35.2159 26.3335Z" fill="#27AE60"/>
<path d="M20.9634 26.7782L18.4546 24.2642C17.8024 23.6107 16.7433 23.6113 16.0919 24.2656C15.4431 24.9173 15.4442 25.9712 16.0943 26.6216L20.2562 30.7849C20.6467 31.1756 21.2801 31.1756 21.6707 30.7849L31.4642 20.987C32.1144 20.3364 32.1155 19.2823 31.4665 18.6305C30.8152 17.9762 29.7563 17.9753 29.1038 18.6285L20.9634 26.7782Z" fill="#27AE60"/>
</g>
<defs>
<clipPath id="clip0_14502_43114">
<rect width="40" height="40" fill="white" transform="translate(4 4)"/>
</clipPath>
</defs>
</svg>
