<svg width="24" height="24" viewBox="0 0 24 24" fill="none" xmlns="http://www.w3.org/2000/svg">
<path d="M19.6667 11.0695C19.4942 11.0695 19.3217 11.0973 19.1587 11.1159L17.1846 9.21299H18.7083C19.2354 9.21299 19.6667 8.79527 19.6667 8.28474V7.93201C19.6667 7.2451 18.9192 6.79026 18.2771 7.10587L16.0921 8.16407L13.6292 5.77847C13.4567 5.60211 13.2075 5.5 12.9583 5.5H10.0833C9.55625 5.5 9.125 5.91771 9.125 6.42825C9.125 6.93878 9.55625 7.35649 10.0833 7.35649H12.1629C12.4217 7.35649 12.6613 7.4586 12.8433 7.62568L14.4821 9.21299H11.2717C11.1183 9.21299 10.9746 9.25012 10.8404 9.31509L7.83125 10.7724C7.46708 10.9488 7.01667 10.8838 6.72917 10.5961L5.57917 9.48218C5.39708 9.31509 5.14792 9.21299 4.89875 9.21299H1.45833C0.93125 9.21299 0.5 9.6307 0.5 10.1412C0.5 10.6518 0.93125 11.0695 1.45833 11.0695H4.33333C1.91833 11.0695 0.0304167 13.223 0.605417 15.655C0.921667 17.001 2.04292 18.087 3.4325 18.3933C5.94333 18.9503 8.16667 17.1216 8.16667 14.7825L9.51792 16.0913C9.88208 16.444 10.3708 16.639 10.8787 16.639H11.8467C12.5367 16.639 13.1692 16.2862 13.5142 15.7014L16.3029 10.9767L17.2708 11.9142C16.1879 12.7589 15.5842 14.1513 15.9483 15.6736C16.2742 17.0103 17.3954 18.0963 18.7754 18.4026C21.2767 18.9503 23.5 17.1124 23.5 14.7825C23.5 12.731 21.7846 11.0695 19.6667 11.0695ZM4.33333 16.639C3.27917 16.639 2.41667 15.8035 2.41667 14.7825C2.41667 13.7614 3.27917 12.926 4.33333 12.926C5.3875 12.926 6.25 13.7614 6.25 14.7825C6.25 15.8035 5.3875 16.639 4.33333 16.639ZM19.6667 16.639C18.6125 16.639 17.75 15.8035 17.75 14.7825C17.75 13.7614 18.6125 12.926 19.6667 12.926C20.7208 12.926 21.5833 13.7614 21.5833 14.7825C21.5833 15.8035 20.7208 16.639 19.6667 16.639Z" fill="#27AE60"/>
</svg>
